<?xml version="1.0" encoding="utf-8"?>
<!-- Generator: Adobe Illustrator 16.0.0, SVG Export Plug-In . SVG Version: 6.00 Build 0)  -->
<!DOCTYPE svg PUBLIC "-//W3C//DTD SVG 1.1//EN" "http://www.w3.org/Graphics/SVG/1.1/DTD/svg11.dtd">
<svg version="1.1" id="Layer_1" xmlns="http://www.w3.org/2000/svg" xmlns:xlink="http://www.w3.org/1999/xlink" x="0px" y="0px"
	 width="512px" height="512px" viewBox="0 0 512 512" enable-background="new 0 0 512 512" xml:space="preserve">
<path display="none" d="M256,1.25C115.526,1.25,1.25,115.531,1.25,256S115.526,510.75,256,510.75
	c140.474,0,254.75-114.281,254.75-254.75S396.474,1.25,256,1.25z M256,491.154C126.338,491.154,20.846,385.663,20.846,256
	C20.846,126.338,126.338,20.846,256,20.846S491.154,126.338,491.154,256C491.154,385.663,385.662,491.154,256,491.154z"/>
<path display="none" d="M118.516,225.078c36.797,72.321,96.083,131.346,168.406,168.405l56.228-56.224
	c6.886-6.893,17.116-9.188,26.053-6.129c28.626,9.455,59.548,14.563,91.237,14.563c14.054,0,25.56,11.503,25.56,25.552v89.195
	c0,14.051-11.506,25.555-25.56,25.555c-239.952,0-434.438-194.47-434.438-434.438c0-14.058,11.497-25.555,25.557-25.555H141
	c14.059,0,25.557,11.497,25.557,25.555c0,31.944,5.111,62.61,14.569,91.234c2.808,8.941,0.768,18.911-6.39,26.067L118.516,225.078z"
	/>
<path d="M440.521,71.481H71.482c-25.374,0-45.904,20.757-45.904,46.13L25.351,394.39c0,25.374,20.756,46.128,46.131,46.128H440.52
	c25.374,0,46.13-20.754,46.13-46.128V117.613C486.651,92.238,465.896,71.481,440.521,71.481z M440.521,163.742L256.001,279.066
	L71.482,163.741v-46.129l184.519,115.325l184.519-115.323V163.742L440.521,163.742z"/>
<path display="none" d="M256,25.63c-89.156,0-161.259,72.102-161.259,161.259C94.741,307.832,256,486.369,256,486.369
	s161.259-178.535,161.259-299.48C417.259,97.733,345.157,25.63,256,25.63z M256,244.483c-31.788,0-57.591-25.806-57.591-57.592
	c0-31.789,25.803-57.593,57.591-57.593c31.787,0,57.593,25.803,57.593,57.593C313.593,218.677,287.787,244.483,256,244.483z"/>
<path display="none" d="M365.496,146.504H146.504c-15.057,0-27.237,12.317-27.237,27.374l-0.137,164.244
	c0,15.058,12.317,27.374,27.374,27.374h218.992c15.058,0,27.374-12.316,27.374-27.374V173.878
	C392.87,158.821,380.554,146.504,365.496,146.504z M365.496,338.122H146.504v-136.87L256,269.688l109.496-68.436V338.122z
	 M256,242.313l-109.496-68.435h218.992L256,242.313z"/>
<path display="none" d="M317.854,119.915l-123.828-0.124c-13.622,0-24.644,11.143-24.644,24.765v222.887
	c0,13.621,11.022,24.767,24.644,24.767h123.828c13.621,0,24.766-11.146,24.766-24.767V144.555
	C342.618,130.933,331.475,119.915,317.854,119.915z M317.854,342.678H194.026V169.321h123.828V342.678z"/>
<path display="none" d="M25.071,390.723v96.209h96.206l283.747-283.75l-96.205-96.207L25.071,390.723z M479.423,128.783
	c10.009-10.008,10.009-26.168,0-36.179l-60.03-60.028c-10.009-10.009-26.167-10.009-36.177,0l-46.952,46.951l96.209,96.206
	L479.423,128.783z"/>
<path display="none" d="M445.047,45.949H66.954c-23.106,0-42.01,18.903-42.01,42.011v252.06c0,23.109,18.903,42.013,42.01,42.013
	h147.035l-42.01,63.015v21.004h168.04v-21.004l-42.011-63.015h147.034c23.107,0,42.013-18.903,42.013-42.013V87.96
	C487.057,64.852,468.152,45.949,445.047,45.949z M445.047,298.011H66.954V87.96h378.09v210.051H445.047z"/>
<path display="none" d="M466.109,60.614H45.788c-11.611,0-21.042,9.419-21.042,21.12V354.79c0,11.675,9.329,21.142,21.042,21.142
	h41.969l59.222,68.869c7.596,8.829,20.132,8.728,27.727,0l60.251-68.869h231.152c11.701,0,21.146-9.469,21.146-21.142V81.734
	C487.255,70.031,478.016,60.614,466.109,60.614z M297.979,287.147c0,2.563-1.947,4.722-4.312,4.722H113.225
	c-2.376,0-4.415-2.08-4.415-4.722v-11.703c0-2.566,1.937-4.619,4.415-4.619h180.443c2.364,0,4.312,2.053,4.312,4.619V287.147z
	 M382.151,224.099c0,2.59-2.156,4.619-4.621,4.619H113.43c-2.58,0-4.62-2.028-4.62-4.619V212.42c0-2.592,2.039-4.644,4.62-4.644
	H377.53c2.566,0,4.621,2.051,4.621,4.644V224.099z M382.151,161.1c0,2.567-2.156,4.62-4.621,4.62H113.43
	c-2.58,0-4.62-2.053-4.62-4.62v-11.7c0-2.567,2.039-4.724,4.62-4.724H377.53c2.566,0,4.621,2.054,4.621,4.724V161.1z"/>
<path display="none" d="M420.938,283.922v137.438c0,4.968-1.815,9.263-5.443,12.891c-3.628,3.626-7.922,5.439-12.887,5.439H292.654
	V329.736H219.35v109.953H109.392c-4.964,0-9.258-1.813-12.885-5.439c-3.629-3.626-5.442-7.923-5.442-12.891V283.922
	c0-0.195,0.049-0.485,0.144-0.861c0.094-0.385,0.142-0.669,0.142-0.858l164.65-135.73l164.647,135.73
	C420.84,282.578,420.938,283.149,420.938,283.922z M484.789,264.159l-17.75,21.192c-1.528,1.718-3.535,2.768-6.015,3.148h-0.861
	c-2.479,0-4.482-0.67-6.013-2.004L256.001,121.277L57.853,286.498c-2.29,1.521-4.582,2.193-6.874,2.006
	c-2.479-0.385-4.483-1.435-6.015-3.151l-17.752-21.191c-1.525-1.908-2.193-4.149-2.006-6.726c0.192-2.578,1.242-4.632,3.15-6.159
	l205.883-171.52c6.109-4.963,13.363-7.446,21.761-7.446c8.396,0,15.655,2.482,21.759,7.446l69.871,58.413V82.335
	c0-2.675,0.86-4.87,2.578-6.588c1.717-1.718,3.91-2.577,6.585-2.577h54.975c2.675,0,4.867,0.859,6.583,2.577
	c1.719,1.719,2.58,3.913,2.58,6.588v116.826l62.708,52.114c1.913,1.526,2.961,3.579,3.147,6.158
	C486.987,260.011,486.319,262.252,484.789,264.159z"/>
<path display="none" d="M256,256c63.483,0,114.905-51.422,114.905-114.902c0-63.486-51.422-114.909-114.905-114.909
	c-63.486,0-114.903,51.422-114.903,114.909C141.098,204.578,192.515,256,256,256z M256,313.453
	c-76.697,0-229.813,38.489-229.813,114.904v57.453h459.623v-57.453C485.814,351.942,332.695,313.453,256,313.453z"/>
<path display="none" d="M363.625,176.372l-8.431,79.603h-63.673v231.024h-95.456V256h-47.69v-79.629h47.69v-47.793
	C196.066,63.635,222.972,25,299.489,25h63.696v79.629h-39.801c-29.787,0-31.759,11.131-31.759,31.886l-0.104,39.855h72.104V176.372z
	"/>
<path display="none" fill="#0D1014" d="M314.3,69.696c-41.638,15.163-67.956,54.234-64.972,96.999l0.994,16.5l-16.655-2.016
	c-60.625-7.751-113.603-34.018-158.594-78.145L53.076,81.142l-5.631,16.158c-11.994,36.034-4.321,74.112,20.663,99.721
	c13.328,14.141,10.318,16.158-12.65,7.752c-7.989-2.696-15.004-4.713-15.661-3.692c-2.329,2.357,5.656,32.996,11.996,45.146
	c8.668,16.866,26.32,33.336,45.646,43.131l16.341,7.75l-19.353,0.288c-18.646,0-19.327,0.34-17.311,7.436
	c6.652,21.893,32.973,45.149,62.301,55.258l20.663,7.07l-17.992,10.789c-26.658,15.531-57.977,24.277-89.299,24.905
	c-15.006,0.34-27.34,1.675-27.34,2.698c0,3.351,40.669,22.207,64.292,29.643c70.967,21.896,155.267,12.439,218.564-24.928
	c44.99-26.606,89.954-79.508,110.958-130.731c11.336-27.259,22.653-77.122,22.653-101.031c0-15.503,0.993-17.52,19.639-36.032
	c10.998-10.791,21.317-22.575,23.334-25.928c3.35-6.416,2.984-6.416-13.987-0.68c-28.306,10.108-32.313,8.773-18.303-6.39
	c10.318-10.79,22.652-30.326,22.652-36.036c0-0.995-5.002,0.682-10.657,3.694c-6,3.38-19.327,8.433-29.334,11.444l-17.989,5.734
	l-16.314-11.155c-9.009-6.049-21.631-12.805-28.31-14.822C355.624,63.62,329.648,64.3,314.3,69.696z"/>
<path display="none" fill="#0D1014" d="M429.69,24.448H82.337c-32.686,0-57.891,25.203-57.891,57.891v347.322
	c0,32.688,25.205,57.891,57.891,57.891h347.324c32.686,0,57.893-25.202,57.893-57.891V82.339
	C487.58,49.622,462.347,24.448,429.69,24.448z M256.358,165.034c51.355,0,92.987,40.345,92.987,90.091
	c0,49.747-41.634,90.092-92.987,90.092c-51.328,0-92.96-40.373-92.96-90.092C163.397,205.349,205.032,165.034,256.358,165.034z
	 M429.69,415.181c0,10.151-4.33,14.48-14.481,14.48H96.819c-10.12,0-14.481-4.329-14.481-14.48V212.573l36.071,7.857
	c-3.871,12.586-5.964,25.891-5.964,39.713c0,76.96,64.459,139.438,143.884,139.438c79.483,0,143.915-62.452,143.915-139.438
	c0-13.823-2.094-27.127-5.965-39.713l35.382-7.857v202.607H429.69z M429.69,154.681c0,8-6.479,14.48-14.481,14.48h-57.891
	c-7.999,0-14.481-6.48-14.481-14.48V96.79c0-7.999,6.482-14.479,14.481-14.479h57.891c8.002,0,14.481,6.481,14.481,14.479V154.681
	L429.69,154.681z"/>
<path display="none" fill="#0D1014" d="M432.279,178.18c0,102.608-57.051,179.287-141.136,179.287
	c-28.26,0-54.803-15.267-63.902-32.621c0,0-15.198,60.266-18.393,71.896c-11.322,41.106-44.651,82.232-47.228,85.604
	c-1.805,2.336-5.794,1.606-6.212-1.499c-0.727-5.243-9.208-57.094,0.793-99.413c5.024-21.233,33.637-142.542,33.637-142.542
	s-8.349-16.698-8.349-41.391c0-38.769,22.468-67.714,50.445-67.714c23.79,0,35.265,17.843,35.265,39.255
	c0,23.923-15.221,59.695-23.084,92.824c-6.563,27.757,13.922,50.4,41.281,50.4c49.563,0,82.937-63.661,82.937-139.084
	c0-57.317-38.593-100.25-108.844-100.25c-79.32,0-128.773,59.167-128.773,125.273c0,22.798,6.739,38.879,17.27,51.303
	c4.824,5.729,5.507,8.019,3.744,14.583c-1.277,4.824-4.118,16.388-5.352,20.992c-1.738,6.632-7.114,8.988-13.084,6.542
	c-36.543-14.911-53.572-54.959-53.572-99.94c0-74.3,62.671-163.404,186.95-163.404C366.57,28.347,432.279,100.598,432.279,178.18z"
	/>
<path display="none" fill="#333333" d="M486.211,476.018V305.779c0-91.208-48.682-133.649-113.62-133.649
	c-52.403,0-75.866,28.821-88.934,49.043v-42.081h-98.698c1.305,27.879,0,296.925,0,296.925h98.698v-165.83
	c0-8.847,0.638-17.725,3.245-24.048c7.129-17.727,23.358-36.09,50.626-36.09c35.727,0,50.015,27.213,50.015,67.129v158.863
	L486.211,476.018L486.211,476.018z M80.963,138.566c34.397,0,55.841-22.829,55.841-51.319c-0.639-29.127-21.443-51.29-55.202-51.29
	c-33.759,0-55.813,22.137-55.813,51.263c0,28.517,21.415,51.317,54.564,51.317h0.609v0.029H80.963z M130.312,476.018V179.093h-98.67
	v296.925H130.312L130.312,476.018z"/>
<path display="none" fill="#0D1014" d="M486.582,377.128c-0.05,0.936-0.266,1.879-0.693,2.789
	c-2.741,6.432-15.157,15.543-58.487,22.244c-3.532,0.545-4.915,5.169-7.024,14.829c-0.765,3.506-1.557,6.966-2.623,10.63
	c-0.909,3.169-2.887,4.622-6.201,4.622h-0.547c-2.291,0-5.558-0.426-9.694-1.212c-7.342-1.435-15.567-2.77-26.03-2.77
	c-6.102,0-12.438,0.546-18.785,1.578c-13.009,2.173-24.053,9.964-35.75,18.218c-16.917,11.95-34.463,24.363-61.79,24.363
	c-1.188,0-2.354-0.024-3.531-0.096c-0.741,0.048-1.53,0.096-2.294,0.096c-27.315,0-44.875-12.389-61.826-24.376
	c-11.723-8.277-22.766-16.094-35.774-18.24c-6.359-1.066-12.681-1.579-18.785-1.579c-11.006,0-19.708,1.712-26.031,2.939
	c-3.858,0.765-7.172,1.407-9.719,1.407c-2.646,0-5.487-0.573-6.747-4.819c-1.093-3.69-1.856-7.246-2.623-10.679
	c-1.928-8.87-3.313-14.344-7.026-14.902c-43.333-6.697-55.747-15.824-58.515-22.306c-0.401-0.906-0.619-1.858-0.668-2.767
	c-0.146-2.502,1.625-4.673,4.077-5.096c66.621-10.982,96.485-79.06,97.723-81.947c0.024-0.073,0.073-0.147,0.097-0.245
	c4.077-8.25,4.867-15.421,2.378-21.309c-4.574-10.771-19.477-15.495-29.341-18.639c-2.426-0.765-4.696-1.48-6.503-2.197
	c-19.708-7.789-21.333-15.775-20.57-19.853c1.31-6.941,10.606-11.771,18.091-11.771c2.05,0,3.859,0.376,5.39,1.091
	c8.846,4.152,16.832,6.249,23.735,6.249c9.513,0,13.676-4.003,14.186-4.526c-0.244-4.502-0.545-9.222-0.837-14.064
	c-1.976-31.49-4.453-70.626,5.51-92.978c29.865-66.973,93.196-72.167,111.885-72.167c0.473,0,8.204-0.073,8.204-0.073h1.115
	c18.738,0,82.204,5.217,112.093,72.216c9.962,22.352,7.485,61.512,5.51,92.978l-0.073,1.359c-0.27,4.381-0.547,8.653-0.767,12.729
	c0.476,0.497,4.298,4.151,12.925,4.503c6.552-0.244,14.089-2.355,22.378-6.202c2.427-1.14,5.121-1.359,6.942-1.359
	c2.79,0,5.63,0.547,7.986,1.53l0.145,0.047c6.698,2.379,11.081,7.075,11.176,11.966c0.099,4.624-3.434,11.539-20.713,18.372
	c-1.786,0.691-4.077,1.434-6.506,2.197c-9.892,3.142-24.792,7.861-29.344,18.641c-2.501,5.885-1.71,13.058,2.379,21.309
	c0.023,0.072,0.071,0.146,0.098,0.244c1.238,2.888,31.076,70.952,97.723,81.922C484.979,372.43,486.728,374.627,486.582,377.128z"/>
<path id="XMLID_31_" display="none" fill="#0D1014" d="M171.835,227.058v57.996c0,0,56.186-0.115,79.134-0.115
	c-12.436,37.534-31.654,57.994-79.134,57.994c-48.044,0-85.463-38.884-85.463-86.932c0-48.044,37.533-86.934,85.463-86.934
	c25.436,0,41.828,8.93,56.866,21.368c12.095-12.098,11.079-13.792,41.713-42.731c-26.001-23.63-60.593-38.097-98.464-38.097
	c-80.829,0-146.396,65.565-146.396,146.395c0,80.828,65.566,146.395,146.396,146.395c120.846,0,150.351-105.243,140.521-175.333
	C283.867,227.058,171.835,227.058,171.835,227.058z M435.687,229.887v-50.758H399.51v50.758h-52.111v36.176h52.113v52.114h36.179
	v-52.114h50.757v-36.176H435.687z"/>
<path display="none" fill="#333333" d="M274.633,421.406c-67.112,3.554-98.511-11.573-127.295-39.115
	c-32.135-30.761-19.238-65.844,6.956-67.595c26.169-1.774,41.882,30.232,55.841,39.166c13.96,8.886,67.008,29.113,95.055-3.604
	c30.515-35.562-20.304-53.962-57.563-59.545c-53.177-8.022-120.34-37.366-115.113-95.186c5.231-57.77,48.126-87.393,93.283-91.581
	c57.565-5.33,95.034,8.884,124.679,34.699c34.267,29.797,15.71,63.099-6.092,65.792c-21.755,2.664-46.172-49.014-94.145-49.802
	c-49.445-0.786-82.847,52.465-21.829,67.593c61.073,15.13,126.454,21.322,149.987,78.231
	C401.95,357.391,341.792,417.825,274.633,421.406z M463.884,286.014c1.272-9.465,1.98-19.111,1.98-28.883
	c0-117.599-94.474-212.962-210.979-212.962c-11.576,0-22.948,0.965-33.988,2.819c-19.823-13.099-43.407-20.739-68.763-20.739
	C82.559,26.249,26.236,83.436,26.236,154c0,25.688,7.438,49.521,20.281,69.548c-1.726,10.942-2.612,22.158-2.612,33.557
	c0,117.622,94.423,212.959,210.981,212.959c13.147,0,25.964-1.293,38.431-3.579c19.341,12.156,42.132,19.267,66.554,19.267
	c69.546,0,125.894-57.189,125.894-127.748C485.738,331.301,477.691,306.498,463.884,286.014z"/>
<g display="none">
	<path display="inline" d="M202.194,180.945c10.774-22.587,26.499-42.803,46.369-59.267l-2.441-1.979
		c-33.588,2.425-63.891,16.991-86.43,39.374l3.248,2.211C175.187,169.665,188.401,176.177,202.194,180.945z"/>
	<path display="inline" d="M185.409,260.766h-66.031c1.063,31.297,12.684,59.981,31.427,82.543l4.009-2.994
		c13.071-9.323,27.211-16.594,41.996-21.94C189.83,300.164,185.938,280.759,185.409,260.766z"/>
	<path display="inline" d="M198.369,189.578c-14.315-5.022-28.037-11.81-40.752-20.516l-4.444-3.015
		c-20.122,22.953-32.688,52.676-33.795,85.277h66.031C185.985,229.826,190.383,208.941,198.369,189.578z"/>
	<path display="inline" d="M200.421,327.074c-14.117,5.064-27.608,11.975-40.038,20.857l-3.271,2.418
		c22.521,23.601,53.348,39.17,87.747,41.95l3.221-2.297C227.243,372.573,211.123,351.042,200.421,327.074z"/>
	<path display="inline" d="M211.338,183.798c12.937,3.643,26.31,5.664,39.942,6.058v-58.092
		C234.384,146.5,220.893,164.205,211.338,183.798z"/>
	<path display="inline" d="M194.826,251.327h56.454v-52.034c-14.988-0.412-29.7-2.672-43.88-6.789
		C199.707,210.945,195.398,230.837,194.826,251.327z"/>
	<path display="inline" d="M205.737,315.361c14.693-4.42,29.953-6.84,45.543-7.26v-47.338h-56.454
		C195.382,279.721,199.106,298.141,205.737,315.361z"/>
	<path display="inline" d="M251.28,380.329v-62.812c-14.32,0.416-28.368,2.627-41.883,6.609
		C219.047,345.379,233.204,364.557,251.28,380.329z"/>
	<path display="inline" d="M304.604,192.504c-14.184,4.117-28.896,6.377-43.883,6.789v52.034h56.454
		C316.599,230.838,312.292,210.945,304.604,192.504z"/>
	<path display="inline" d="M260.721,131.764v58.092c13.629-0.394,27.028-2.415,39.945-6.058
		C291.111,164.182,277.596,146.5,260.721,131.764z"/>
	<path display="inline" d="M315.216,318.372c14.76,5.347,28.85,12.569,41.881,21.872l4.099,3.063
		c18.742-22.561,30.369-51.229,31.428-82.543h-66.031C326.061,280.759,322.171,300.184,315.216,318.372z"/>
	<path display="inline" d="M311.603,327.074c-10.708,24.037-26.868,45.563-47.682,62.93l3.222,2.297
		c34.397-2.779,65.227-18.351,87.743-41.949l-3.337-2.486C339.139,339.023,325.691,332.141,311.603,327.074z"/>
	<path display="inline" d="M309.806,180.945c13.791-4.769,27.007-11.28,39.257-19.661l3.084-2.346
		c-22.518-22.317-52.748-36.814-86.271-39.239l-2.438,1.979C283.3,138.141,299.031,158.358,309.806,180.945z"/>
	<path display="inline" d="M326.591,251.327h66.031c-1.104-32.689-13.744-62.508-33.982-85.482l-4.053,3.083
		c-12.824,8.771-26.593,15.607-40.96,20.652C321.593,208.943,326.015,229.826,326.591,251.327z"/>
	<path display="inline" d="M317.175,260.766h-56.454v47.338c15.586,0.42,30.875,2.838,45.563,7.258
		C312.892,298.141,316.621,279.721,317.175,260.766z"/>
	<path display="inline" d="M302.622,324.128c-13.515-3.983-27.581-6.192-41.901-6.608v62.832
		C278.771,364.628,292.977,345.447,302.622,324.128z"/>
</g>
<g display="none">
	<path display="inline" d="M484.766,240.787c-7.467-114.569-99.004-206.084-213.536-213.683v-0.466h-30.443v0.466
		c-114.568,7.6-206.084,99.114-213.681,213.683h-0.467v30.445h0.467c7.599,114.534,99.113,206.068,213.681,213.536v0.594h30.445
		v-0.594c114.532-7.468,206.067-99.002,213.535-213.536h0.596v-30.445H484.766z M170.288,76.681
		c-14.782,19.522-27.177,44.18-36.006,72.252H88.46C108.336,117.874,136.688,92.657,170.288,76.681L170.288,76.681z M72.479,179.545
		h53.736c-4.161,19.264-6.682,39.872-7.595,61.241H57.829C59.469,219.116,64.566,198.661,72.479,179.545L72.479,179.545z
		 M57.829,271.23h60.792c0.913,21.354,3.436,41.962,7.597,61.225H72.481C64.566,313.34,59.469,292.884,57.829,271.23L57.829,271.23z
		 M88.457,363.064h45.676c8.976,28.075,21.221,52.713,36.155,72.276C136.688,419.361,108.336,394.125,88.457,363.064L88.457,363.064
		z M240.786,452.81c-31.543-8.363-58.569-42.109-74.96-89.747h74.96V452.81z M240.786,332.455h-83.639
		c-4.329-19.115-7.037-39.571-7.914-61.225h91.552V332.455z M240.786,240.787h-91.552c0.878-21.668,3.585-42.126,7.914-61.241
		h83.639V240.787z M240.786,148.934h-74.96c16.391-47.634,43.417-81.401,74.96-89.727V148.934z M423.542,148.934h-45.691
		c-8.961-28.072-21.204-52.732-36.14-72.252C375.312,92.657,403.681,117.874,423.542,148.934L423.542,148.934z M271.229,59.208
		c31.508,8.326,58.538,42.091,74.961,89.728h-74.961V59.208z M271.229,179.545h83.625c4.329,19.115,6.867,39.571,7.913,61.241
		h-91.538V179.545L271.229,179.545z M271.229,271.23h91.538c-0.896,21.653-3.584,42.109-7.913,61.225h-83.625V271.23z
		 M271.229,452.81v-89.747h74.961C329.768,410.7,302.737,444.446,271.229,452.81L271.229,452.81z M341.711,435.341
		c14.785-19.711,27.181-44.201,36.138-72.276h45.692C403.681,394.125,375.312,419.361,341.711,435.341L341.711,435.341z
		 M439.521,332.455h-53.759c4.183-19.263,6.723-39.871,7.616-61.225h60.778C452.512,292.884,447.435,313.34,439.521,332.455
		L439.521,332.455z M393.378,240.787c-0.895-21.369-3.435-41.977-7.616-61.241h53.759c7.916,19.115,12.991,39.571,14.634,61.241
		H393.378z"/>
</g>
<g id="Guides" display="none">
	<g display="inline">
		<path fill="#333F4F" d="M119.405,119.406v273.189h273.189V119.406H119.405z M389.322,389.322H122.678V122.678h266.644V389.322
			L389.322,389.322z"/>
		<path fill="#333F4F" d="M89.875,89.875v332.25h332.251V89.875H89.875z M418.136,418.135H93.852V93.857h324.284V418.135z"/>
	</g>
</g>
</svg>
