<?xml version="1.0" encoding="UTF-8" standalone="no"?>
<svg
   xmlns:svg="http://www.w3.org/2000/svg"
   xmlns="http://www.w3.org/2000/svg"
   version="1.0"
   width="505.76624"
   height="649.04248"
   id="svg2240">
  <defs
     id="defs2243" />
  <path
     d="M 263.66159,442.54248 L 319.07374,389.08755 L 319.82374,416.16529 L 367.57375,415.84305 L 415.32374,415.52081 L 423.60951,412.63733 C 428.16669,411.05141 434.22844,408.12384 437.08008,406.1316 C 454.36941,394.05275 458.50074,371.93209 447.83563,348.54248 C 446.33091,345.24248 430.4188,317.13384 412.4754,286.07884 C 394.53199,255.02384 380.18239,229.29978 380.58739,228.91427 C 382.55244,227.04378 422.86263,204.303 423.19174,204.87925 C 423.40007,205.24403 437.9728,230.51748 455.57559,261.04248 C 491.51761,323.36953 494.55856,329.09164 499.33885,343.39116 C 517.84835,398.75961 495.63072,444.02555 442.35311,459.49322 C 426.15587,464.19564 424.45966,464.32587 371.32375,464.94665 L 320.32374,465.54248 L 319.32374,496.54248 L 263.66159,442.54248 z M 79.199186,463.09617 C 44.420606,456.97254 19.137476,440.29461 7.412206,415.74214 C 2.384326,405.21388 0.73986598,398.05208 0.13346598,384.04248 C -0.49968402,369.41503 1.048146,359.24765 6.320066,343.40396 C 10.771566,330.02588 16.143326,319.5538 37.234916,283.13643 C 46.920446,266.4131 54.727696,252.65666 54.584356,252.56655 L 31.507616,238.31452 C 34.624806,237.27546 105.3354,217.2407 105.39815,217.37878 C 106.42549,219.63921 123.91251,291.28705 123.53019,291.66937 L 97.086526,279.69777 C 94.082436,283.80611 59.529686,344.45851 57.226666,349.66604 C 53.329196,358.47893 51.566696,367.53543 52.093526,376.04248 C 53.226146,394.33159 63.091606,406.2578 82.579796,412.8969 L 90.323736,415.53505 L 161.07374,415.83261 L 231.82374,416.13018 L 231.82374,465.04248 L 160.57374,464.96066 C 96.906926,464.88755 88.246176,464.68911 79.199186,463.09617 z M 104.47195,169.02981 C 103.56557,168.1882 164.76042,61.369434 172.92444,49.542478 C 181.869,36.584787 195.466,22.580828 206.56433,14.895754 C 213.35092,10.196357 226.67433,4.2278225 235.2337,2.0526345 C 256.79622,-3.4270385 281.83463,2.2239345 301.8994,17.098565 C 311.74774,24.399446 326.39176,40.169829 333.90232,51.563051 C 337.52053,57.051736 348.73833,75.942478 358.83076,93.542479 C 368.92319,111.14248 377.30626,125.71091 377.4598,125.91676 L 401.31252,113.19793 C 401.67968,113.56508 383.22831,186.97125 382.6146,187.58496 C 382.2458,187.95376 309.80821,167.36028 309.14642,166.69849 L 333.82375,150.7763 C 333.82375,149.36613 295.83229,83.935879 291.2326,77.424278 C 279.4361,60.724475 262.01976,51.973061 246.61366,55.004027 C 234.3804,57.410772 222.41214,65.761618 214.21588,77.609548 C 212.0752,80.703959 196.135,107.79684 178.79322,137.81596 C 161.45143,167.83507 146.82643,192.53411 146.29322,192.70271 C 132.06584,185.48716 117.86157,177.76216 104.47195,169.02981 z M 117.82401,649.04248 L 117.82401,544.93448 L 117.82401,544.93448 L 129.04561,544.93448 L 129.04561,544.93448 L 162.93047,544.93448 C 175.20327,544.93458 184.54237,547.70844 190.94781,553.25604 C 197.35309,558.80383 200.55577,566.88931 200.55586,577.5125 C 200.55577,588.74961 197.35309,597.28363 190.94781,603.11457 C 184.54237,608.9456 175.20327,611.86109 162.93047,611.86105 C 154.22695,611.81387 146.69699,611.86109 140.34056,612.0027 L 140.34056,612.0027 L 140.34056,649.04248 L 140.34056,649.04248 L 117.82401,649.04248 L 117.82401,649.04248 z M 140.34056,593.94315 L 140.34056,593.94315 L 159.11659,593.94315 C 165.4241,593.9432 170.15477,592.59759 173.30863,589.90631 C 176.46234,587.21514 178.03922,583.1547 178.0393,577.72496 C 178.03922,572.76751 176.46234,569.04938 173.30863,566.57053 C 170.15477,564.09186 165.4241,562.85248 159.11659,562.85239 L 140.34056,562.85239 L 140.34056,562.85239 L 140.34056,593.94315 z M 218.15838,649.04248 L 218.15838,649.04248 L 218.15838,544.93448 L 218.15838,544.93448 L 297.51643,544.93448 L 297.51643,544.93448 L 297.51643,563.41896 L 297.51643,563.41896 L 240.67495,563.41896 L 240.67495,563.41896 L 240.67495,585.51535 L 240.67495,585.51535 L 293.40918,585.51535 L 293.40918,603.43326 L 293.40918,603.43326 L 240.67495,603.43326 L 240.67495,603.43326 L 240.67495,630.558 L 240.67495,630.558 L 300.01012,630.558 L 300.01012,630.558 L 300.01012,649.04248 L 300.01012,649.04248 L 218.15838,649.04248 z M 341.74278,649.04248 L 341.74278,563.41896 L 341.74278,563.41896 L 309.1781,563.41896 L 309.1781,563.41896 L 309.1781,544.93448 L 309.1781,544.93448 L 396.82401,544.93448 L 396.82401,544.93448 L 396.82401,563.41896 L 396.82401,563.41896 L 364.25934,563.41896 L 364.25934,563.41896 L 364.25934,649.04248 L 364.25934,649.04248 L 341.74278,649.04248 L 341.74278,649.04248 z M 238.82374,230.04248 L 200.82374,230.04248 L 200.82374,207.40489 L 210.19064,205.7452 C 221.56216,203.73032 227.36878,201.35174 232.72157,196.51582 C 237.82913,191.90145 240.61687,187.41059 242.84598,180.20611 L 244.59833,174.54248 L 271.32374,174.54248 L 271.83379,366.04248 L 238.82374,366.04248 L 238.82374,230.04248 z "
     style="fill:#000000"
     id="path2249" />
</svg>
