<?xml version="1.0" encoding="iso-8859-1"?>
<!-- Uploaded to: SVG Repo, www.svgrepo.com, Generator: SVG Repo Mixer Tools -->
<svg fill="#000000" height="800px" width="800px" version="1.1" id="Capa_1" xmlns="http://www.w3.org/2000/svg" xmlns:xlink="http://www.w3.org/1999/xlink" 
	 viewBox="0 0 612.006 612.006" xml:space="preserve">
<g>
	<g>
		<g>
			<path d="M578.617,229.265H475.358L411.1,92.316c6.872-10.64,8.833-24.267,4.112-37.071
				c-7.966-21.618-31.945-32.688-53.569-24.722c-21.618,7.966-32.682,31.945-24.716,53.563
				c5.551,15.078,18.895,25.017,33.801,26.953l55.462,118.22H188.453l55.468-118.214c14.906-1.936,28.25-11.882,33.801-26.96
				c7.966-21.618-3.104-45.597-24.722-53.563s-45.603,3.104-53.569,24.722c-4.715,12.798-2.754,26.425,4.112,37.071l-64.252,136.949
				H33.383C15.016,229.265,0,244.288,0,262.648v5.563c0,18.36,15.016,33.383,33.383,33.383h545.234
				c18.36,0,33.389-15.023,33.389-33.383v-5.563C612,244.288,596.977,229.265,578.617,229.265z"/>
			<path d="M578.617,229.265H475.358L411.1,92.316c6.872-10.64,8.833-24.267,4.112-37.071
				c-7.966-21.618-31.945-32.688-53.569-24.722c-21.618,7.966-32.682,31.945-24.716,53.563
				c5.551,15.078,18.895,25.017,33.801,26.953l55.462,118.22H188.453l55.468-118.214c14.906-1.936,28.25-11.882,33.801-26.96
				c7.966-21.618-3.104-45.597-24.722-53.563s-45.603,3.104-53.569,24.722c-4.715,12.798-2.754,26.425,4.112,37.071l-64.252,136.949
				H33.383C15.016,229.265,0,244.288,0,262.648v5.563c0,18.36,15.016,33.383,33.383,33.383h545.234
				c18.36,0,33.389-15.023,33.389-33.383v-5.563C612,244.288,596.977,229.265,578.617,229.265z"/>
		</g>
		<g>
			<g>
				<path d="M111.268,550.684c3.848,17.967,15.023,33.383,33.383,33.383h322.691c18.36,0,28.232-15.631,33.383-33.383
					l48.381-222.543H62.893L111.268,550.684z M416.38,533.406l33.383-157.172c1.918-9.017,10.757-14.777,19.792-12.859
					c9.023,1.918,14.777,10.775,12.865,19.793l-33.383,157.172c-1.666,7.849-8.593,13.228-16.313,13.228
					c-1.149,0-2.311-0.123-3.479-0.369C420.222,551.281,414.468,542.417,416.38,533.406z M332.606,535.693l11.126-157.172
					c0.645-9.196,8.599-16.117,17.826-15.471c9.189,0.652,16.117,8.63,15.471,17.826l-11.132,157.172
					c-0.621,8.796-7.948,15.508-16.627,15.508c-0.393,0-0.799-0.012-1.199-0.037C338.882,552.866,331.955,544.888,332.606,535.693z
					 M247.929,363.049c9.122-0.658,17.18,6.276,17.826,15.471l11.126,157.172c0.652,9.196-6.276,17.174-15.471,17.832
					c-0.4,0.025-0.799,0.037-1.192,0.037c-8.679,0-16.006-6.718-16.627-15.508l-11.132-157.172
					C231.806,371.679,238.733,363.701,247.929,363.049z M139.937,363.369c9.023-1.918,17.869,3.842,19.792,12.859L193.112,533.4
					c1.918,9.017-3.842,17.881-12.859,19.792c-1.174,0.246-2.342,0.369-3.485,0.369c-7.714,0-14.642-5.378-16.307-13.228
					l-33.383-157.172C125.154,374.144,130.913,365.286,139.937,363.369z"/>
			</g>
			<g>
				<path d="M111.268,550.684c3.848,17.967,15.023,33.383,33.383,33.383h322.691c18.36,0,28.232-15.631,33.383-33.383
					l48.381-222.543H62.893L111.268,550.684z M416.38,533.406l33.383-157.172c1.918-9.017,10.757-14.777,19.792-12.859
					c9.023,1.918,14.777,10.775,12.865,19.793l-33.383,157.172c-1.666,7.849-8.593,13.228-16.313,13.228
					c-1.149,0-2.311-0.123-3.479-0.369C420.222,551.281,414.468,542.417,416.38,533.406z M332.606,535.693l11.126-157.172
					c0.645-9.196,8.599-16.117,17.826-15.471c9.189,0.652,16.117,8.63,15.471,17.826l-11.132,157.172
					c-0.621,8.796-7.948,15.508-16.627,15.508c-0.393,0-0.799-0.012-1.199-0.037C338.882,552.866,331.955,544.888,332.606,535.693z
					 M247.929,363.049c9.122-0.658,17.18,6.276,17.826,15.471l11.126,157.172c0.652,9.196-6.276,17.174-15.471,17.832
					c-0.4,0.025-0.799,0.037-1.192,0.037c-8.679,0-16.006-6.718-16.627-15.508l-11.132-157.172
					C231.806,371.679,238.733,363.701,247.929,363.049z M139.937,363.369c9.023-1.918,17.869,3.842,19.792,12.859L193.112,533.4
					c1.918,9.017-3.842,17.881-12.859,19.792c-1.174,0.246-2.342,0.369-3.485,0.369c-7.714,0-14.642-5.378-16.307-13.228
					l-33.383-157.172C125.154,374.144,130.913,365.286,139.937,363.369z"/>
			</g>
		</g>
	</g>
</g>
</svg>